HIERARCHY
ROOT Pelvis
{
	OFFSET 0.000000 0.000000 0.000000
	CHANNELS 6 Xposition Yposition Zposition Xrotation Yrotation Zrotation
	JOINT LeftUpLeg_virtual
	{
		OFFSET 0.000000 0.000000 0.000000
		CHANNELS 3 Xrotation Yrotation Zrotation
		JOINT LeftUpLeg
		{
			OFFSET 18.735201 -5.666702 -4.541200
			CHANNELS 3 Xrotation Yrotation Zrotation
			JOINT LeftLeg
			{
				OFFSET -0.021200 -31.938179 0.493100
				CHANNELS 3 Xrotation Yrotation Zrotation
				JOINT LeftFoot
				{
					OFFSET 0.021200 -31.938179 -4.336299
					CHANNELS 3 Xrotation Yrotation Zrotation
					JOINT LeftToeBase
					{
						OFFSET 0.943001 -26.722000 15.023500
						CHANNELS 3 Xrotation Yrotation Zrotation
						End Site
						{
							OFFSET 0 0 0
						}
					}
				}
			}
		}
	}
	JOINT RightUpLeg_virtual
	{
		OFFSET 0.000000 0.000000 0.000000
		CHANNELS 3 Xrotation Yrotation Zrotation
		JOINT RightUpLeg
		{
			OFFSET -18.735201 -5.666702 -4.541200
			CHANNELS 3 Xrotation Yrotation Zrotation
			JOINT RightLeg
			{
				OFFSET 0.018946 -31.938133 0.493100
				CHANNELS 3 Xrotation Yrotation Zrotation
				JOINT RightFoot
				{
					OFFSET -0.018946 -31.938126 -4.336299
					CHANNELS 3 Xrotation Yrotation Zrotation
					JOINT RightToeBase
					{
						OFFSET -0.943001 -26.722004 15.023500
						CHANNELS 3 Xrotation Yrotation Zrotation
						End Site
						{
							OFFSET 0 0 0
						}
					}
				}
			}
		}
	}
	JOINT Hips_virtual
	{
		OFFSET 0.000000 0.000000 0.000000
		CHANNELS 3 Xrotation Yrotation Zrotation
		JOINT Hips
		{
			OFFSET -0.000000 -0.000000 -0.000000
			CHANNELS 3 Xrotation Yrotation Zrotation
			JOINT Spine
			{
				OFFSET 0.000000 10.199997 -0.299500
				CHANNELS 3 Xrotation Yrotation Zrotation
				JOINT Spine1
				{
					OFFSET 0.000000 11.900002 -1.516600
					CHANNELS 3 Xrotation Yrotation Zrotation
					JOINT Spine2
					{
						OFFSET 0.000000 13.600006 -2.842500
						CHANNELS 3 Xrotation Yrotation Zrotation
						JOINT Neck_virtual
						{
							OFFSET 0.000000 0.000000 0.000000
							CHANNELS 3 Xrotation Yrotation Zrotation
							JOINT Neck
							{
								OFFSET 0.000000 9.624100 -2.890100
								CHANNELS 3 Xrotation Yrotation Zrotation
								JOINT Head
								{
									OFFSET 0.000000 14.068802 -1.351900
									CHANNELS 3 Xrotation Yrotation Zrotation
									End Site
									{
										OFFSET 0 0 0
									}
								}
							}
						}
						JOINT LeftShoulder_virtual
						{
							OFFSET 0.000000 0.000000 0.000000
							CHANNELS 3 Xrotation Yrotation Zrotation
							JOINT LeftShoulder
							{
								OFFSET 15.263000 10.923401 -0.547700
								CHANNELS 3 Xrotation Yrotation Zrotation
								JOINT LeftArm
								{
									OFFSET 25.438599 -2.830597 -13.032500
									CHANNELS 3 Xrotation Yrotation Zrotation
									JOINT LeftForeArm
									{
										OFFSET 29.960503 0.000000 0.000000
										CHANNELS 3 Xrotation Yrotation Zrotation
										JOINT LeftHand
										{
											OFFSET 27.849251 0.000000 0.000000
											CHANNELS 3 Xrotation Yrotation Zrotation
											End Site
											{
												OFFSET 0 0 0
											}
										}
									}
								}
							}
						}
						JOINT RightShoulder_virtual
						{
							OFFSET 0.000000 0.000000 0.000000
							CHANNELS 3 Xrotation Yrotation Zrotation
							JOINT RightShoulder
							{
								OFFSET -15.263000 10.923401 -0.547700
								CHANNELS 3 Xrotation Yrotation Zrotation
								JOINT RightArm
								{
									OFFSET -25.438599 -2.830597 -13.032500
									CHANNELS 3 Xrotation Yrotation Zrotation
									JOINT RightForeArm
									{
										OFFSET -29.960503 0.000000 0.000000
										CHANNELS 3 Xrotation Yrotation Zrotation
										JOINT RightHand
										{
											OFFSET -27.849251 0.000000 0.000000
											CHANNELS 3 Xrotation Yrotation Zrotation
											End Site
											{
												OFFSET 0 0 0
											}
										}
									}
								}
							}
						}
					}
				}
			}
		}
	}
}
MOTION
Frames: 11
Frame Time: 0.03333333
-8.452343 86.386688 12.689045 0.000000 0.000000 0.000000 -0.226127 -27.691551 -1.987760 -39.050469 16.112403 25.524374 52.784474 -7.509037 5.158596 -15.184906 1.026499 -23.131674 0.000000 0.000000 0.000000 -0.704695 -26.851760 -1.958593 -29.228678 -11.172126 -17.832738 51.482479 -9.439150 -4.382251 -26.542723 -1.362416 21.813232 0.000000 0.000000 0.000000 -0.227368 -26.656133 -1.815543 -0.772443 0.033738 0.003798 3.833795 4.386207 3.567723 5.461339 4.000606 -1.180531 0.000000 0.000000 0.000000 0.553375 3.209354 -0.938340 1.195938 0.868634 2.514771 0.000000 0.000000 0.000000 2.585222 2.848457 -0.048223 -1.531746 -8.933358 16.549111 -64.905041 -41.012277 -59.700286 -10.729293 -35.669526 -9.673369 0.000000 0.000000 0.000000 1.366929 3.965700 -1.033852 2.474407 1.100195 -5.832611 -108.691485 64.174524 96.233274 11.052320 22.266362 -8.054140 0.000000 0.000000 0.000000 
-8.462061 86.374535 12.691902 0.000000 0.000000 0.000000 -0.166193 -27.655668 -1.995514 -38.822010 16.033804 25.365910 52.554501 -7.581530 5.294850 -15.363886 0.961695 -23.281615 0.000000 0.000000 0.000000 -0.670195 -26.725750 -1.989841 -29.442251 -10.974089 -17.942034 51.945122 -9.186561 -4.425364 -25.884402 -1.099451 22.175618 0.000000 0.000000 0.000000 -0.212624 -26.556781 -1.805677 -0.778470 0.057594 0.002005 3.887636 4.513143 3.632781 5.409012 4.047207 -1.230515 0.000000 0.000000 0.000000 0.478787 3.213823 -0.939773 1.203873 0.866366 2.548008 0.000000 0.000000 0.000000 2.535731 2.878430 -0.078231 -1.546828 -8.923250 16.396484 -65.254063 -41.097504 -60.006770 -10.815048 -35.724014 -9.684545 0.000000 0.000000 0.000000 1.380998 3.992361 -1.042695 2.360742 1.263419 -5.933508 -108.262965 64.337076 96.134455 10.973116 21.925951 -8.157110 0.000000 0.000000 0.000000 
-8.466082 86.368431 12.720383 0.000000 0.000000 0.000000 -0.066390 -27.570672 -2.035891 -38.630163 15.874314 25.280907 52.230812 -7.718219 5.461330 -15.582387 0.745506 -23.650095 0.000000 0.000000 0.000000 -0.624682 -26.574576 -2.067606 -29.546739 -10.998134 -18.107014 52.306528 -8.930903 -4.391810 -25.530665 -0.913568 22.500462 0.000000 0.000000 0.000000 -0.162715 -26.372134 -1.846188 -0.781415 0.058308 -0.001153 3.793423 4.568020 3.675255 5.355072 4.061206 -1.279546 0.000000 0.000000 0.000000 0.547255 3.242176 -0.955460 1.198057 0.796016 2.637253 0.000000 0.000000 0.000000 2.456109 2.920003 -0.164847 -1.650736 -8.738598 16.022101 -65.548567 -41.549745 -60.314716 -11.121028 -35.682011 -9.822329 0.000000 0.000000 0.000000 1.296070 4.042740 -1.060697 2.293773 1.633020 -6.123566 -107.385074 64.761593 95.775091 10.880348 21.840568 -8.396229 0.000000 0.000000 0.000000 
-8.474426 86.379761 12.758270 0.000000 0.000000 0.000000 0.060004 -27.491134 -2.101122 -38.524869 15.647309 25.277442 51.943421 -7.858534 5.663365 -15.750679 0.471296 -24.018307 0.000000 0.000000 0.000000 -0.564185 -26.470721 -2.162163 -29.482809 -11.376507 -18.260553 52.392250 -8.882622 -4.246011 -25.922274 -1.000206 22.542722 0.000000 0.000000 0.000000 -0.080258 -26.177888 -1.920752 -0.779530 0.033648 -0.005703 3.617723 4.533460 3.642974 5.261767 4.029754 -1.315251 0.000000 0.000000 0.000000 0.687610 3.263044 -0.977593 1.153106 0.668181 2.774644 0.000000 0.000000 0.000000 2.335877 2.942376 -0.287571 -1.828088 -8.402291 15.479744 -65.448375 -42.451087 -60.387758 -11.581767 -35.592608 -10.100146 0.000000 0.000000 0.000000 1.127184 4.084236 -1.081791 2.284976 2.118856 -6.449511 -106.352828 65.245532 95.433466 10.821549 21.902982 -8.763368 0.000000 0.000000 0.000000 
-8.504663 86.424767 12.759762 0.000000 0.000000 0.000000 0.202748 -27.468955 -2.167855 -38.489817 15.357983 25.329507 51.777738 -7.997735 5.920045 -15.931589 0.180491 -24.302479 0.000000 0.000000 0.000000 -0.481603 -26.486825 -2.241153 -29.341560 -11.890120 -18.346721 52.226615 -8.974800 -4.058326 -26.385919 -1.176433 22.430531 0.000000 0.000000 0.000000 0.031218 -26.048690 -2.001711 -0.772397 0.001476 -0.003014 3.475154 4.427290 3.511198 5.088093 3.961037 -1.333313 0.000000 0.000000 0.000000 0.766252 3.236458 -1.002414 1.039062 0.507492 2.942079 0.000000 0.000000 0.000000 2.153111 2.915079 -0.404553 -2.055727 -7.894183 14.869738 -64.745713 -43.827688 -60.037192 -12.133796 -35.721835 -10.537277 0.000000 0.000000 0.000000 0.892099 4.071919 -1.107951 2.309790 2.608927 -6.966186 -105.354452 65.649060 95.305372 10.817737 21.875950 -9.253119 0.000000 0.000000 0.000000 
-8.550222 86.487358 12.717468 0.000000 0.000000 0.000000 0.348535 -27.532376 -2.217545 -38.495417 15.076965 25.435435 51.787092 -8.137779 6.201079 -16.088825 -0.148711 -24.564728 0.000000 0.000000 0.000000 -0.380833 -26.620649 -2.278526 -29.396926 -12.153395 -18.352942 52.146449 -9.025461 -3.955983 -26.102900 -1.195845 22.342148 0.000000 0.000000 0.000000 0.179260 -26.055447 -2.045222 -0.765208 -0.012593 0.006639 3.501158 4.294263 3.292478 4.833505 3.860059 -1.326954 0.000000 0.000000 0.000000 0.665260 3.137419 -1.026531 0.835063 0.336992 3.106992 0.000000 0.000000 0.000000 1.887900 2.808401 -0.492462 -2.303836 -7.232048 14.289149 -63.520281 -45.549603 -59.293562 -12.706758 -36.166900 -11.110828 0.000000 0.000000 0.000000 0.589945 3.986544 -1.125508 2.320304 3.085711 -7.609129 -104.712011 65.806373 95.668807 10.854353 21.609279 -9.879526 0.000000 0.000000 0.000000 
-8.607345 86.559158 12.642220 0.000000 0.000000 0.000000 0.475034 -27.674019 -2.246125 -38.614437 14.926740 25.650021 52.040338 -8.240582 6.404554 -16.215378 -0.514571 -24.872013 0.000000 0.000000 0.000000 -0.263472 -26.784570 -2.270037 -29.783071 -12.041886 -18.312675 52.341560 -9.042912 -3.969108 -25.040358 -1.065586 22.174783 0.000000 0.000000 0.000000 0.339228 -26.141135 -2.049289 -0.758591 0.000715 0.020501 3.724306 4.188784 3.061356 4.519748 3.734394 -1.309167 0.000000 0.000000 0.000000 0.339708 2.967501 -1.059446 0.580252 0.179727 3.234208 0.000000 0.000000 0.000000 1.573116 2.639266 -0.551025 -2.504806 -6.527860 13.759778 -62.107689 -47.337698 -58.423068 -13.124554 -36.641998 -11.663322 0.000000 0.000000 0.000000 0.265271 3.821735 -1.136039 2.267833 3.599366 -8.273579 -104.402228 65.662338 96.510955 10.951114 21.104328 -10.684249 0.000000 0.000000 0.000000 
-8.657511 86.619003 12.571930 0.000000 0.000000 0.000000 0.576974 -27.815500 -2.258265 -38.951729 14.966722 26.013715 52.535677 -8.285415 6.465867 -16.341183 -0.888436 -25.198598 0.000000 0.000000 0.000000 -0.112676 -26.892888 -2.233230 -30.288692 -11.740962 -18.208866 52.684039 -9.159479 -4.017169 -23.928678 -1.027813 21.682956 0.000000 0.000000 0.000000 0.494536 -26.243458 -2.034099 -0.759759 0.028203 0.029273 4.039373 4.127932 2.942540 4.202384 3.580007 -1.272001 0.000000 0.000000 0.000000 -0.113835 2.769863 -1.090958 0.343746 0.036516 3.308106 0.000000 0.000000 0.000000 1.251759 2.435593 -0.585706 -2.608471 -5.864019 13.345513 -61.059979 -48.953820 -57.897444 -13.193097 -36.731470 -11.985454 0.000000 0.000000 0.000000 -0.087786 3.607577 -1.150782 2.099287 4.217021 -8.873190 -104.197971 65.321149 97.487556 11.134450 20.548301 -11.665261 0.000000 0.000000 0.000000 
-8.688195 86.651268 12.589302 0.000000 0.000000 0.000000 0.637148 -27.851934 -2.272921 -39.465144 15.196462 26.463945 53.170926 -8.274457 6.434633 -16.512054 -1.207176 -25.445651 0.000000 0.000000 0.000000 0.049180 -26.875814 -2.206179 -30.667088 -11.561027 -18.012573 53.104345 -9.472497 -3.989455 -23.729640 -1.311428 20.838330 0.000000 0.000000 0.000000 0.596947 -26.294345 -2.022996 -0.763374 0.048106 0.029784 4.302722 4.096917 2.991548 3.974676 3.397792 -1.227222 0.000000 0.000000 0.000000 -0.527613 2.586381 -1.113004 0.195816 -0.096982 3.312524 0.000000 0.000000 0.000000 0.983862 2.248745 -0.615944 -2.598353 -5.423307 13.134992 -60.787038 -50.143748 -58.074325 -12.728593 -35.963350 -11.879861 0.000000 0.000000 0.000000 -0.418300 3.392470 -1.192526 1.820144 4.980769 -9.394202 -103.761884 64.981750 98.140229 11.417701 20.217117 -12.784655 0.000000 0.000000 0.000000 
-8.699636 86.639854 12.684464 0.000000 0.000000 0.000000 0.635911 -27.709198 -2.293414 -39.944210 15.562446 26.897903 53.711225 -8.265433 6.387668 -16.904351 -1.419823 -25.616836 0.000000 0.000000 0.000000 0.113902 -26.694603 -2.224891 -30.708811 -11.610354 -17.739272 53.474794 -9.952282 -3.906732 -24.545828 -1.838549 19.847613 0.000000 0.000000 0.000000 0.579896 -26.229800 -2.050180 -0.766502 0.049884 0.024270 4.396589 4.110693 3.123460 3.904156 3.250101 -1.217885 0.000000 0.000000 0.000000 -0.683767 2.468624 -1.138699 0.196043 -0.224658 3.235913 0.000000 0.000000 0.000000 0.849747 2.140812 -0.655636 -2.492362 -5.377543 13.208665 -61.219867 -50.974125 -58.962421 -11.844083 -34.621163 -11.445593 0.000000 0.000000 0.000000 -0.615759 3.232964 -1.274964 1.484146 5.877155 -9.944294 -102.483478 64.931678 97.741974 11.842494 20.206659 -14.011553 0.000000 0.000000 0.000000 
-8.681194 86.573631 12.795975 0.000000 0.000000 0.000000 0.533282 -27.409433 -2.313664 -40.138016 16.031549 27.188835 53.888881 -8.327706 6.387470 -17.722072 -1.521146 -25.771190 0.000000 0.000000 0.000000 0.017453 -26.394721 -2.280909 -30.350540 -11.854943 -17.479917 53.645518 -10.463475 -3.904505 -25.911530 -2.407362 18.852587 0.000000 0.000000 0.000000 0.432752 -26.077717 -2.107187 -0.765022 0.039253 0.014787 4.272129 4.154719 3.204499 4.015926 3.170788 -1.257516 0.000000 0.000000 0.000000 -0.498814 2.442127 -1.165552 0.339445 -0.347465 3.089880 0.000000 0.000000 0.000000 0.854538 2.109954 -0.693534 -2.335319 -5.809530 13.626828 -62.016069 -51.545139 -60.162704 -10.757330 -33.274107 -10.861708 0.000000 0.000000 0.000000 -0.615635 3.170949 -1.383743 1.182284 6.856402 -10.621491 -100.137765 65.149056 96.079766 12.376102 20.344028 -15.323248 0.000000 0.000000 0.000000 
